<?xml version="1.0" standalone="no"?>
<!DOCTYPE svg PUBLIC "-//W3C//DTD SVG 20010904//EN"
 "http://www.w3.org/TR/2001/REC-SVG-20010904/DTD/svg10.dtd">
<svg version="1.0" xmlns="http://www.w3.org/2000/svg"
 width="300.000000pt" height="300.000000pt" viewBox="0 0 300.000000 300.000000"
 preserveAspectRatio="xMidYMid meet">

<g transform="translate(0.000000,300.000000) scale(0.100000,-0.100000)"
fill="#000000" stroke="none">
<path d="M590 2628 c-132 -23 -200 -49 -234 -89 -26 -31 -46 -105 -46 -172 0
-59 95 -513 136 -652 13 -44 36 -159 52 -256 34 -207 52 -249 122 -287 76 -40
147 -23 327 77 36 20 72 31 123 36 62 6 80 13 119 42 25 20 60 42 78 51 29 14
31 18 26 51 -6 34 -13 44 -38 55 -5 2 8 20 31 40 70 60 124 138 124 179 0 20
5 39 10 42 13 8 13 35 1 35 -5 0 -13 -9 -16 -20 -11 -34 -51 -26 -65 13 l-11
32 -36 -75 c-21 -44 -36 -92 -38 -118 -1 -44 -16 -69 -33 -58 -6 3 -8 15 -5
26 8 28 -16 26 -87 -10 -33 -17 -61 -38 -65 -50 -9 -28 -22 -25 -40 10 -16 32
-61 60 -95 60 -28 0 -35 19 -76 230 -19 102 -44 209 -54 238 -11 29 -26 89
-35 133 -16 77 -16 82 2 101 40 44 120 70 259 83 57 6 78 4 108 -10 20 -10 40
-15 43 -11 11 10 11 89 1 109 -7 13 -4 17 13 17 36 0 157 -89 249 -183 58 -59
92 -87 100 -82 9 6 6 13 -11 26 -22 17 -23 19 -8 34 22 22 54 6 63 -30 4 -14
11 -25 17 -25 21 0 1 59 -40 118 -57 82 -117 137 -191 172 -36 17 -84 46 -107
64 l-41 34 -159 4 c-112 4 -171 10 -202 22 -55 20 -126 19 -271 -6z m638 -68
c41 -25 41 -34 0 -26 -36 7 -60 24 -52 37 8 13 15 11 52 -11z m-213 -72 c17
-15 -14 -26 -67 -23 -58 3 -64 7 -44 28 17 16 92 13 111 -5z m-144 -41 c-13
-13 -26 -3 -16 12 3 6 11 8 17 5 6 -4 6 -10 -1 -17z m517 12 c34 -12 72 -63
72 -98 0 -27 -17 -27 -25 -1 -3 11 -16 25 -28 31 -95 49 -109 100 -19 68z
m-712 -110 c10 -17 -23 -46 -38 -31 -8 8 -8 15 2 27 15 18 26 19 36 4z m704
-658 c0 -5 -7 -14 -15 -21 -8 -7 -15 -17 -15 -23 0 -16 -31 -47 -47 -47 -21 0
-17 77 5 89 21 13 72 14 72 2z m-510 -167 c0 -8 -4 -14 -10 -14 -5 0 -10 9
-10 21 0 11 5 17 10 14 6 -3 10 -13 10 -21z m-59 -47 c-13 -13 -26 -3 -16 12
3 6 11 8 17 5 6 -4 6 -10 -1 -17z m306 -64 c5 -14 -78 -29 -103 -19 -16 6 -15
8 2 21 22 17 96 16 101 -2z"/>
<path d="M1270 2278 c0 -25 46 -93 64 -96 28 -6 38 19 19 48 -29 47 -83 78
-83 48z"/>
<path d="M1440 2140 c0 -5 4 -10 9 -10 5 0 12 -10 16 -22 6 -20 8 -21 12 -5 5
18 -12 47 -28 47 -5 0 -9 -4 -9 -10z"/>
<path d="M1360 2084 c0 -5 7 -19 15 -30 8 -10 15 -14 15 -8 0 5 -7 19 -15 30
-8 10 -15 14 -15 8z"/>
<path d="M1580 2051 c-14 -28 -12 -61 6 -96 22 -41 35 -140 26 -200 -7 -48 -9
-50 -39 -49 -29 2 -33 -2 -44 -35 -6 -20 -26 -64 -45 -98 -37 -67 -42 -93 -19
-93 8 0 15 9 15 19 0 11 10 27 23 36 12 8 34 32 50 52 29 40 35 38 13 -5 -7
-15 -16 -47 -20 -72 -4 -24 -11 -49 -16 -56 -11 -12 -31 -108 -21 -99 3 3 22
36 41 72 19 37 44 72 55 77 11 6 25 18 32 26 10 13 12 13 17 0 12 -38 16 -89
6 -95 -13 -8 -13 -62 0 -70 6 -3 10 -32 10 -63 0 -76 13 -95 34 -53 19 37 22
37 36 10 9 -16 7 -32 -11 -75 -25 -59 -33 -66 -43 -31 -5 19 -8 20 -16 6 -5
-9 -23 -76 -39 -149 -17 -74 -36 -140 -44 -147 -11 -12 -25 -10 -88 10 l-74
23 2 50 c4 65 33 204 48 230 7 11 11 31 8 45 -3 16 1 30 11 38 19 16 21 51 3
51 -15 0 -37 -55 -37 -92 0 -14 -9 -37 -20 -51 -11 -14 -20 -37 -20 -51 0 -15
-10 -65 -21 -112 -17 -68 -19 -90 -10 -110 6 -14 11 -36 11 -50 0 -40 51 -84
97 -84 32 0 47 8 90 48 48 45 55 56 74 131 13 46 27 80 33 78 6 -2 16 -32 23
-68 43 -226 59 -266 127 -298 51 -25 87 -26 132 -5 38 18 66 50 226 257 137
177 206 283 224 345 8 26 19 51 24 56 6 6 10 18 10 28 0 9 18 32 40 49 44 36
39 50 -15 48 -48 -2 -48 -1 -26 37 26 44 26 47 0 39 l-22 -7 22 31 c19 26 29
31 65 31 55 0 71 -18 70 -81 0 -47 0 -48 18 -32 43 38 8 130 -57 151 -33 10
-45 9 -83 -8 -25 -11 -51 -20 -58 -20 -27 0 -63 -24 -66 -44 -3 -18 -19 -31
-63 -50 -6 -3 -4 -9 4 -14 19 -14 7 -28 -29 -35 -22 -5 -30 -12 -30 -27 0 -13
-12 -28 -30 -38 -16 -9 -30 -24 -30 -32 0 -21 -20 -40 -42 -40 -10 0 -18 -7
-18 -15 0 -8 -11 -25 -25 -37 -14 -12 -25 -29 -25 -39 0 -18 -33 -35 -49 -25
-11 7 -27 99 -41 236 -29 283 -38 343 -57 368 -37 50 -70 66 -141 70 -61 4
-71 1 -98 -21 l-30 -25 -13 55 c-12 51 -11 58 9 97 18 34 20 46 11 69 -6 16
-16 25 -21 22 -6 -3 -13 1 -16 9 -8 21 -21 20 -34 -3z m190 -506 c0 -14 -4
-25 -10 -25 -5 0 -10 11 -10 25 0 14 5 25 10 25 6 0 10 -11 10 -25z m50 -70
c0 -35 -16 -48 -26 -21 -7 19 -40 9 -52 -17 -9 -19 -11 -16 -11 22 -1 43 -1
43 29 39 17 -3 33 -1 36 4 12 19 24 6 24 -27z m80 -212 c0 -40 -2 -44 -22 -41
-20 3 -24 11 -30 58 -8 68 -2 78 28 49 18 -17 24 -33 24 -66z m-90 27 c13 -24
5 -41 -15 -34 -26 10 -30 54 -5 54 5 0 14 -9 20 -20z m-30 -101 c0 -21 -16
-26 -23 -6 -6 17 3 38 14 31 5 -3 9 -14 9 -25z m110 -9 c0 -10 10 -25 23 -31
12 -6 24 -13 25 -15 2 -1 -5 -11 -16 -22 -11 -11 -22 -26 -24 -33 -11 -28 -31
10 -36 66 -4 46 -2 55 12 55 9 0 16 -8 16 -20z m-50 0 c13 -8 13 -13 2 -30 -8
-13 -10 -34 -6 -55 7 -41 -4 -44 -34 -12 -15 16 -18 27 -12 37 5 8 10 27 10
43 0 28 14 34 40 17z m158 -77 c-4 -22 -22 -20 -26 1 -2 10 3 16 13 16 10 0
15 -7 13 -17z m-98 -74 c0 -6 -4 -7 -10 -4 -5 3 -10 11 -10 16 0 6 5 7 10 4 6
-3 10 -11 10 -16z m115 1 c3 -5 -1 -10 -10 -10 -9 0 -13 5 -10 10 3 6 8 10 10
10 2 0 7 -4 10 -10z m3 -68 c25 -19 40 -106 23 -132 -8 -12 -13 -12 -30 4 -11
10 -27 16 -36 13 -8 -4 -15 -2 -15 3 0 6 3 10 8 10 10 0 32 50 32 71 0 10 -4
21 -10 24 -12 7 -13 25 -2 25 4 0 17 -8 30 -18z m-138 -17 c0 -8 -4 -15 -10
-15 -5 0 -10 7 -10 15 0 8 5 15 10 15 6 0 10 -7 10 -15z m20 -44 c0 -21 -13
-41 -26 -41 -14 0 -19 31 -7 43 10 10 33 8 33 -2z"/>
<path d="M1390 2015 c0 -11 -7 -29 -15 -39 -8 -11 -15 -30 -15 -41 0 -19 5
-22 38 -21 31 1 38 5 40 24 2 14 -5 33 -16 45 -11 12 -22 29 -25 37 -4 11 -6
9 -7 -5z"/>
<path d="M1508 1831 c-4 -25 -1 -31 14 -31 15 0 18 5 13 23 -12 37 -22 40 -27
8z"/>
<path d="M2455 1651 c-11 -5 -29 -18 -39 -30 -16 -18 -17 -21 -3 -21 24 0 127
42 127 51 0 11 -58 11 -85 0z"/>
<path d="M1385 1470 c-4 -6 5 -10 19 -10 14 0 26 5 26 10 0 6 -9 10 -19 10
-11 0 -23 -4 -26 -10z"/>
<path d="M1340 1445 c-13 -15 -7 -45 9 -45 5 0 11 14 13 30 5 33 -3 38 -22 15z"/>
<path d="M2582 1388 c-6 -6 -12 -23 -12 -37 l1 -26 15 28 c17 32 15 54 -4 35z"/>
<path d="M2535 1234 c-14 -22 -15 -28 -4 -35 20 -13 34 -5 37 20 6 37 -13 45
-33 15z"/>
<path d="M2530 1145 c0 -8 -10 -23 -22 -35 -12 -11 -17 -20 -11 -20 12 0 53
47 53 61 0 5 -4 9 -10 9 -5 0 -10 -7 -10 -15z"/>
<path d="M2437 943 c-18 -140 -26 -191 -36 -216 -23 -59 -5 -80 21 -24 23 46
61 240 53 266 -12 38 -32 24 -38 -26z"/>
<path d="M2236 753 c-9 -9 -7 -33 3 -33 12 0 22 28 12 34 -5 3 -11 3 -15 -1z"/>
</g>
</svg>
